# xmcd
#
# Track frame offsets:
#	150
#	19331
#	37758
#	68257
#	85003
#	100328
#	116065
#	134778
#	154202
#	170396
#	184725
#	204042
#
# Disc length: 2924 seconds
#
# Revision: 2
# Processed by: cddbd v1.5.1PL0 Copyright (c) Steve Scherf et al.
# Submitted via: EasyCDDAExtractor 8.0.1.1
#
DISCID=940b6a0c
DTITLE=Various Artist - Something Old Something New
DYEAR=2004
DGENRE=Blues
TTITLE0=Fantastic Shakers - Best Things Happen While You're Dancing
TTITLE1=Fanastic Shakers - Boogie Woogie Dancin' Shoes
TTITLE2=Fantastic Shakers - Neither One Of Us
TTITLE3=Fantastic Shakers - Sweets For My Sweet
TTITLE4=Fantastic Shakers - I Need You
TTITLE5=Fantastic Shakers - One Dance With You
TTITLE6=Fantastic Shakers - Good Looks Are A Light Switch Away
TTITLE7=Fantastic Shakers - Where Do I Go
TTITLE8=Fantastic Shakers - Beverly Hills Boogie
TTITLE9=Fantastic Shakers - Are You Ready For Me
TTITLE10=Fantastic Shakers - She's The Attraction
TTITLE11=Fantastic Shakers - Nothing But Love
EXTD=2004 Fantistic Shakers \nwww.fantasticshakers.com\nProducer: Freddy Tripp
EXTD=, Ex Prod: Bo Schronce
EXTT0=
EXTT1=
EXTT2=
EXTT3=
EXTT4=
EXTT5=
EXTT6=
EXTT7=
EXTT8=
EXTT9=
EXTT10=
EXTT11=
PLAYORDER=
